<svg width="100" height="105" viewBox="0 0 150 155" fill="none" xmlns="http://www.w3.org/2000/svg">
<path fill-rule="evenodd" clip-rule="evenodd" d="M97.968 78.5822C109.997 71.0763 118 57.7228 118 42.5C118 19.0279 98.9721 0 75.5 0C52.0279 0 33 19.0279 33 42.5C33 57.5815 40.8555 70.8282 52.698 78.3716C22.1675 87.8673 0 116.345 0 150C0 152.761 2.23858 155 5 155C7.76142 155 10 152.761 10 150C10 114.101 39.1015 85 75 85C110.899 85 140 114.101 140 150C140 152.761 142.239 155 145 155C147.761 155 150 152.761 150 150C150 116.59 128.154 88.2825 97.968 78.5822ZM108 42.5C108 60.4493 93.4492 75 75.5 75C57.5507 75 43 60.4493 43 42.5C43 24.5507 57.5507 10 75.5 10C93.4492 10 108 24.5507 108 42.5Z" fill="#164AFF"/>
</svg>
