<svg width="100" height="70" viewBox="0 0 100 70" fill="none" xmlns="http://www.w3.org/2000/svg">
<path fill-rule="evenodd" clip-rule="evenodd" d="M100 67C100 68.6569 98.6569 70 97 70H3C1.34315 70 0 68.6569 0 67V3C0 1.34315 1.34315 0 3 0H97C98.6569 0 100 1.34315 100 3V67ZM74.2728 15.6833C77.1042 14.2676 76.0968 10 72.9311 10H27.0689C23.9032 10 22.8958 14.2676 25.7272 15.6833L48.6584 27.1488C49.5029 27.5711 50.4971 27.5711 51.3416 27.1488L74.2728 15.6833ZM90 23.8541C90 21.624 87.6531 20.1735 85.6584 21.1708L51.3416 38.3292C50.4971 38.7515 49.5029 38.7515 48.6584 38.3292L14.3416 21.1708C12.3469 20.1735 10 21.624 10 23.8541V57C10 58.6569 11.3431 60 13 60H87C88.6569 60 90 58.6569 90 57V23.8541Z" fill="#164AFF"/>
</svg>
