<svg width="100" height="135" viewBox="0 0 150 185" fill="none" xmlns="http://www.w3.org/2000/svg">
<path fill-rule="evenodd" clip-rule="evenodd" d="M75.5 0L140 35L111.757 50.3258C114.356 54.5755 116.201 59.2717 117.183 64.2086C118.823 72.4528 117.982 80.9982 114.765 88.764C111.548 96.5299 106.101 103.167 99.1118 107.837C98.7317 108.091 98.348 108.339 97.9609 108.58C128.151 118.278 150 146.587 150 180C150 182.761 147.761 185 145 185C142.239 185 140 182.761 140 180C140 144.102 110.899 115 75 115C39.1015 115 10 144.102 10 180C10 182.761 7.76142 185 5 185C2.23858 185 0 182.761 0 180C0 146.342 22.1707 117.863 52.7047 108.37C52.4308 108.195 52.1586 108.018 51.8883 107.837C44.8992 103.168 39.4519 96.5299 36.2351 88.7641C33.0184 80.9982 32.1768 72.4529 33.8166 64.2087C34.7986 59.2717 36.6441 54.5755 39.2432 50.3258L11 35L75.5 0ZM31.9669 35L75.5 11.3774L119.033 35L75.5 58.6226L31.9669 35ZM103.042 55.2468L75.5 70.4165L47.9577 55.2468C45.8734 58.5741 44.3983 62.2691 43.6245 66.1596C42.3705 72.464 43.0141 78.9986 45.4739 84.9372C47.9338 90.8758 52.0994 95.9516 57.444 99.5228C62.7886 103.094 69.0721 105 75.5 105C81.9279 105 88.2115 103.094 93.5561 99.5227C98.9007 95.9516 103.066 90.8758 105.526 84.9372C107.986 78.9986 108.63 72.4639 107.376 66.1595C106.602 62.2691 105.127 58.5741 103.042 55.2468Z" fill="#164AFF"/>
</svg>
