<svg width="91" height="139" viewBox="0 0 91 139" fill="none" xmlns="http://www.w3.org/2000/svg">
<path d="M88 0H3C1.34315 0 0 1.34315 0 3V26.3281C0 29.43 5.35427 31.2915 8.03722 29.7347C8.70363 29.348 9.39133 28.9973 10.0978 28.6838C14.3075 26.8154 18.9568 26.4922 23.3483 27.7628C27.7399 29.0334 31.6369 31.8292 34.4548 35.7309C37.2728 39.6325 38.8598 44.4297 38.9777 49.4028C39.0957 54.3759 37.7382 59.2568 35.109 63.3134C32.4798 67.37 28.7205 70.3837 24.3951 71.9022C20.0698 73.4208 15.4114 73.3625 11.1188 71.736C9.95602 71.2954 8.79393 70.7548 7.66695 70.1189C5.03426 68.6334 0 70.5493 0 73.5722V97C0 98.6569 1.34315 100 3 100H21.4278C24.4507 100 26.3666 105.034 24.8811 107.667C24.2452 108.794 23.7046 109.956 23.264 111.119C21.6375 115.411 21.5792 120.07 23.0978 124.395C24.6163 128.721 27.63 132.48 31.6866 135.109C35.7432 137.738 40.6241 139.096 45.5972 138.978C50.5703 138.86 55.3675 137.273 59.2691 134.455C63.1708 131.637 65.9666 127.74 67.2372 123.348C68.5078 118.957 68.1846 114.307 66.3162 110.098C66.0027 109.391 65.652 108.704 65.2653 108.037C63.7085 105.354 65.57 100 68.6719 100H88C89.6569 100 91 98.6569 91 97V3C91 1.34315 89.6569 0 88 0Z" fill="#164AFF"/>
</svg>
