<svg width="100" height="98" viewBox="0 0 159 157" fill="none" xmlns="http://www.w3.org/2000/svg">
<path fill-rule="evenodd" clip-rule="evenodd" d="M0 0L9.18082 33.1601L9.14965 33.1913L55.4621 79.5038L39.1985 95.7673C38.5476 95.6319 37.8909 95.5174 37.2294 95.4245C30.8511 94.528 24.3527 95.6739 18.6657 98.6977C12.9787 101.722 8.39488 106.468 5.57134 112.257C2.7478 118.046 0.984555 125.628 2.98456 131.628L20.1514 116.647L39.5609 118.588L42.9514 136.993L25.9846 155.128L27.4846 155.628L28.7397 155.831C35.118 156.727 41.6164 155.581 47.3034 152.558C52.9904 149.534 57.5742 144.787 60.3978 138.998C63.2213 133.209 64.1396 126.675 63.0212 120.331C63.0061 120.246 62.9906 120.16 62.9747 120.074L79.5037 103.545L130.972 155.013L155.013 130.972L103.545 79.5038L122.036 61.0131C122.647 61.1376 123.263 61.2436 123.883 61.3308C130.261 62.2272 136.759 61.0814 142.446 58.0575C148.133 55.0337 152.717 50.287 155.541 44.4979C158.364 38.7088 160.128 31.1276 158.128 25.1276L140.961 40.1084L121.551 38.1675L118.161 19.762L135.128 1.62759L133.628 1.12759L132.372 0.924425C125.994 0.0280041 119.496 1.17383 113.809 4.19767C108.122 7.22151 103.538 11.9681 100.714 17.7572C97.8908 23.5463 96.9725 30.0807 98.091 36.4238C98.1134 36.5512 98.1367 36.6783 98.1607 36.8052L79.5037 55.4621L33.1913 9.14965L33.1601 9.18082L0 0ZM72.4327 62.5332L33.1913 23.2918L23.2918 33.1913L62.5332 72.4327L72.4327 62.5332ZM122.432 132.331L130.972 140.871L140.871 130.972L132.331 122.432L122.432 132.331ZM115.361 125.26L125.26 115.361L96.4743 86.5748L86.5748 96.4743L115.361 125.26Z" fill="#164AFF"/>
</svg>
